<?xml version="1.0" encoding="UTF-8"?>
<svg version="1.1" xmlns="http://www.w3.org/2000/svg" width="500" height="500">
<path d="M0 0 C3.82346354 0.51668426 5.42844513 1.18353515 8 4 C8.88558594 4.9590625 8.88558594 4.9590625 9.7890625 5.9375 C10.39492187 6.618125 11.00078125 7.29875 11.625 8 C12.23601562 8.680625 12.84703125 9.36125 13.4765625 10.0625 C15 12 15 12 16 15 C16.66 15 17.32 15 18 15 C19.26171875 16.3984375 19.26171875 16.3984375 20.6875 18.375 C21.22375 19.11621094 21.76 19.85742188 22.3125 20.62109375 C22.869375 21.40613281 23.42625 22.19117187 24 23 C24.515625 23.71285156 25.03125 24.42570312 25.5625 25.16015625 C27.41068642 27.75028288 29.2102861 30.36908594 31 33 C31.37721191 33.55171875 31.75442383 34.1034375 32.14306641 34.671875 C51.10627824 62.59689282 66.5320069 93.27900875 78 125 C78.28037109 125.763125 78.56074219 126.52625 78.84960938 127.3125 C82.78611117 138.19862841 85.32659978 149.3872757 87.75 160.6875 C87.97360199 161.7215799 87.97360199 161.7215799 88.20172119 162.77655029 C91.59553494 178.60381921 93.49169411 194.24397735 93.5625 210.4375 C93.56679016 211.22737305 93.57108032 212.01724609 93.57550049 212.83105469 C93.58375344 230.21263637 90.40518685 246.25477489 86 263 C85.49337937 265.02992041 84.9868594 267.05986595 84.48046875 269.08984375 C77.50143122 296.04526815 63.12795802 321.33427095 44.109375 341.66796875 C41.32284775 344.74862943 38.86184347 348.03275289 36.41015625 351.3828125 C35.94480469 351.91648437 35.47945313 352.45015625 35 353 C34.34 353 33.68 353 33 353 C32.77183594 353.55300781 32.54367187 354.10601562 32.30859375 354.67578125 C27.31143767 363.55132712 16.89526271 370.88590856 9 377 C8.39027344 377.50015625 7.78054687 378.0003125 7.15234375 378.515625 C5.625 379.6875 5.625 379.6875 3 381 C-0.89505492 379.83213596 -3.99831208 377.81747659 -7.3125 375.5 C-8.19550781 374.8915625 -9.07851562 374.283125 -9.98828125 373.65625 C-10.65214844 373.1096875 -11.31601563 372.563125 -12 372 C-12 371.34 -12 370.68 -12 370 C-12.53625 369.773125 -13.0725 369.54625 -13.625 369.3125 C-24.51511131 363.29428059 -31.67482217 351.6931433 -39 342 C-39.49757812 341.34338379 -39.99515625 340.68676758 -40.5078125 340.01025391 C-57.12126733 318.06943181 -57.12126733 318.06943181 -62.40625 308.01953125 C-63.53889129 305.87362018 -64.70977872 303.74770598 -65.90625 301.63671875 C-87.59278713 263.1448248 -91.7645629 218.17932112 -86 175 C-85.90879883 174.26668457 -85.81759766 173.53336914 -85.72363281 172.77783203 C-83.94235405 158.82448175 -80.06362652 145.43865979 -76 132 C-75.73783691 131.13213867 -75.47567383 130.26427734 -75.20556641 129.37011719 C-71.96317995 118.79904902 -67.92869795 108.88905778 -63 99 C-62.41096566 97.79711613 -61.82242689 96.59398946 -61.234375 95.390625 C-59.19395745 91.24110365 -57.09893231 87.12015699 -55 83 C-54.52256348 82.05769531 -54.04512695 81.11539063 -53.55322266 80.14453125 C-40.69844804 54.82804533 -26.59144983 30.24607144 -7.62109375 8.9453125 C-5.01177023 6.01322616 -2.49811523 3.02664956 0 0 Z M-28 146 C-29.69963891 147.69963891 -29.21274148 149.7963428 -29.25 152.125 C-28.94845591 180.47014485 -14.9282167 208.10617307 2 230 C2.33 229.34 2.66 228.68 3 228 C3.66 228 4.32 228 5 228 C7.31129203 225.34134616 9.21044621 222.34981506 11.1875 219.4375 C11.77539307 218.57213623 12.36328613 217.70677246 12.96899414 216.81518555 C17.85886889 209.47192045 21.68910143 202.17731116 25 194 C25.26893066 193.35466309 25.53786133 192.70932617 25.81494141 192.04443359 C30.87036957 179.84772962 34.2491175 167.81478014 34.0703125 154.53125 C34.06523682 153.80196289 34.06016113 153.07267578 34.05493164 152.32128906 C34.04184616 150.5474798 34.02167648 148.77372508 34 147 C32.08876343 147.00785522 32.08876343 147.00785522 30.13891602 147.01586914 C25.32853929 147.03422051 20.51816553 147.04553999 15.70776367 147.05493164 C13.6413521 147.05990399 11.57494393 147.06668423 9.50854492 147.07543945 C-1.37676338 147.12034366 -12.20842863 147.1152142 -23.0667572 146.2646637 C-24.7089319 146.14160461 -26.35452308 146.0654749 -28 146 Z " fill="#B8985B" transform="translate(245,104)"/>
<path d="M0 0 C3.38420605 3.09197656 6.06949278 5.87528218 8.125 10 C7.98248179 12.99288242 7.54824579 14.46634227 5.6875 16.8125 C4.125 18 4.125 18 2.125 18 C2.125 18.66 2.125 19.32 2.125 20 C1.465 20 0.805 20 0.125 20 C0.125 20.66 0.125 21.32 0.125 22 C-0.535 22 -1.195 22 -1.875 22 C-2.865 23.98 -2.865 23.98 -3.875 26 C-4.535 26 -5.195 26 -5.875 26 C-6.2153125 27.0828125 -6.2153125 27.0828125 -6.5625 28.1875 C-8.13565775 31.55855233 -10.22147131 33.40965057 -12.875 36 C-14.23676581 37.98075027 -15.57093116 39.98079663 -16.875 42 C-18.19881517 43.67423683 -19.53076661 45.34211215 -20.875 47 C-21.535 47.99 -22.195 48.98 -22.875 50 C-27.34240781 50.544504 -29.9290622 49.73780781 -33.75 47.5 C-58.3241186 34.6495935 -84.55677474 31.15554172 -111.875 32 C-111.56764881 33.40782393 -111.25874668 34.8153093 -110.94921875 36.22265625 C-110.77737061 37.00648682 -110.60552246 37.79031738 -110.4284668 38.59790039 C-107.20380773 52.59323368 -101.72943509 66.13072299 -94.8125 78.6875 C-94.41345459 79.41710937 -94.01440918 80.14671875 -93.60327148 80.8984375 C-91.14225045 85.22911407 -88.40592484 88.91442356 -85.01391602 92.56567383 C-83.875 94 -83.875 94 -83.875 96 C-83.215 96 -82.555 96 -81.875 96 C-80.21875 97.71484375 -80.21875 97.71484375 -78.375 99.9375 C-75.98573001 102.92045179 -75.98573001 102.92045179 -72.875 105 C-72.875 105.66 -72.875 106.32 -72.875 107 C-72.29105469 107.26425781 -71.70710937 107.52851563 -71.10546875 107.80078125 C-68.78296956 109.04948047 -67.09835114 110.37612918 -65.1875 112.1875 C-64.58550781 112.73792969 -63.98351562 113.28835937 -63.36328125 113.85546875 C-61.26498273 116.87900126 -61.14938328 119.34731703 -60.875 123 C-61.63183594 126.19384766 -61.63183594 126.19384766 -62.859375 129.4140625 C-63.30023438 130.58710938 -63.74109375 131.76015625 -64.1953125 132.96875 C-64.90300781 134.77859375 -64.90300781 134.77859375 -65.625 136.625 C-66.08132812 137.83929688 -66.53765625 139.05359375 -67.0078125 140.3046875 C-68.97881176 145.47713644 -70.90056178 150.31336697 -73.875 155 C-74.53886719 154.72414062 -75.20273438 154.44828125 -75.88671875 154.1640625 C-78.74653167 153.05004387 -81.63407916 152.06851705 -84.54516602 151.09838867 C-94.12460754 147.86375788 -102.97606888 143.7743402 -111.875 139 C-112.52823242 138.65598145 -113.18146484 138.31196289 -113.85449219 137.95751953 C-141.20773149 123.49899358 -167.27219328 103.44467668 -183.875 77 C-184.56078125 75.97648438 -185.2465625 74.95296875 -185.953125 73.8984375 C-208.13710184 40.67746593 -220.30901681 -0.50155275 -221.3125 -40.375 C-221.34682129 -41.09445801 -221.38114258 -41.81391602 -221.41650391 -42.55517578 C-221.43359375 -44.5859375 -221.43359375 -44.5859375 -220.875 -48 C-216.97027071 -51.09546865 -212.76579041 -51.80810724 -207.9609375 -52.53515625 C-207.19811966 -52.65889114 -206.43530182 -52.78262604 -205.64936829 -52.91011047 C-203.18461671 -53.30606675 -200.71770435 -53.68541702 -198.25 -54.0625 C-196.54921377 -54.32815173 -194.84844884 -54.59393981 -193.14770508 -54.85986328 C-120.98249876 -66.04220549 -54.82408996 -49.54240211 0 0 Z " fill="#B7985A" transform="translate(225.875,81)"/>
<path d="M0 0 C14.08491927 -0.25693883 27.95994444 0.01437326 41.95068359 1.68505859 C44.35037923 1.97068379 46.75033022 2.24768932 49.15185547 2.51708984 C52.88995627 2.93644599 56.62691912 3.36483051 60.36322021 3.79992676 C61.85509592 3.97336029 63.34716035 4.14517869 64.8394165 4.31530762 C66.94351239 4.55699471 69.04626336 4.80819021 71.14892578 5.06201172 C72.37160156 5.20638672 73.59427734 5.35076172 74.85400391 5.49951172 C77.87265172 6.01978136 80.33876872 6.80006717 83.11767578 8.06201172 C84.79414313 41.07910471 75.81616377 77.50995995 61.11767578 107.06201172 C60.79476562 107.72571777 60.47185547 108.38942383 60.13916016 109.07324219 C50.81100898 128.08200574 38.84823441 147.67197026 23.11767578 162.06201172 C22.45767578 162.06201172 21.79767578 162.06201172 21.11767578 162.06201172 C21.11767578 162.72201172 21.11767578 163.38201172 21.11767578 164.06201172 C19.38375627 165.66835187 17.57958478 167.19954042 15.74267578 168.68701172 C14.74494141 169.50427734 13.74720703 170.32154297 12.71923828 171.16357422 C10.11767578 173.06201172 10.11767578 173.06201172 8.11767578 173.06201172 C8.11767578 173.72201172 8.11767578 174.38201172 8.11767578 175.06201172 C3.98047517 178.32572807 -0.47872529 181.17009601 -4.88232422 184.06201172 C-5.87876953 184.71685547 -6.87521484 185.37169922 -7.90185547 186.04638672 C-21.23796753 194.50599122 -35.44175254 201.61220709 -49.75732422 208.24951172 C-50.57080322 208.6361499 -51.38428223 209.02278809 -52.22241211 209.42114258 C-57.04598223 211.60415662 -60.58666577 212.49272527 -65.88232422 212.06201172 C-69.23996195 205.02388647 -72.22891042 197.85954736 -75.13232422 190.62451172 C-75.48552734 189.74827148 -75.83873047 188.87203125 -76.20263672 187.96923828 C-76.70150391 186.71771973 -76.70150391 186.71771973 -77.21044922 185.44091797 C-77.50854492 184.69398682 -77.80664062 183.94705566 -78.11376953 183.17749023 C-78.84847667 181.1551785 -79.40216603 179.15781329 -79.88232422 177.06201172 C-79.01220703 176.42585938 -79.01220703 176.42585938 -78.12451172 175.77685547 C-74.17641726 172.81252712 -70.59062184 169.94942695 -67.44482422 166.12451172 C-66.59919922 165.11388672 -65.75357422 164.10326172 -64.88232422 163.06201172 C-64.22232422 163.06201172 -63.56232422 163.06201172 -62.88232422 163.06201172 C-62.46696411 162.17255859 -62.46696411 162.17255859 -62.04321289 161.26513672 C-60.951797 159.19385659 -59.8116077 157.59554361 -58.30810547 155.81201172 C-57.80875488 155.2098584 -57.3094043 154.60770508 -56.79492188 153.98730469 C-56.00287354 153.03428467 -56.00287354 153.03428467 -55.19482422 152.06201172 C-40.2577188 133.69876058 -31.92217025 112.21722677 -27.88232422 89.06201172 C-57.46251629 89.78425842 -85.5089647 95.19874569 -113.05810547 106.34716797 C-115.88232422 107.06201172 -115.88232422 107.06201172 -117.78857422 106.22607422 C-122.00898539 102.15048108 -125.47205353 97.8276464 -128.88232422 93.06201172 C-131.18814239 90.04040639 -133.53558447 87.05189563 -135.88232422 84.06201172 C-136.58099609 83.16353516 -137.27966797 82.26505859 -137.99951172 81.33935547 C-138.70333984 80.44345703 -139.40716797 79.54755859 -140.13232422 78.62451172 C-140.77685547 77.80080078 -141.42138672 76.97708984 -142.08544922 76.12841797 C-143.89689181 73.86171473 -143.89689181 73.86171473 -146.88232422 72.06201172 C-146.59980947 67.74581418 -144.98422188 65.77585204 -141.83154297 62.91308594 C-140.99042969 62.1824292 -140.99042969 62.1824292 -140.13232422 61.43701172 C-139.55611328 60.92283691 -138.97990234 60.40866211 -138.38623047 59.87890625 C-136.56250064 58.26039547 -134.72347791 56.66065307 -132.88232422 55.06201172 C-132.28613281 54.53607422 -131.68994141 54.01013672 -131.07568359 53.46826172 C-129.35253496 51.94839523 -127.62001376 50.44021907 -125.88232422 48.93701172 C-125.35541992 48.47601074 -124.82851563 48.01500977 -124.28564453 47.54003906 C-121.30630859 45.00903131 -118.60407075 43.27978908 -114.88232422 42.06201172 C-114.88232422 41.40201172 -114.88232422 40.74201172 -114.88232422 40.06201172 C-112.80029297 38.33544922 -112.80029297 38.33544922 -110.06982422 36.43701172 C-109.17650391 35.80537109 -108.28318359 35.17373047 -107.36279297 34.52294922 C-104.88232422 33.06201172 -104.88232422 33.06201172 -101.88232422 33.06201172 C-101.88232422 32.40201172 -101.88232422 31.74201172 -101.88232422 31.06201172 C-94.46048456 25.42141358 -85.37661704 21.80261773 -76.88232422 18.06201172 C-75.74279297 17.55669922 -74.60326172 17.05138672 -73.42919922 16.53076172 C-50.3318179 6.79464583 -25.08876377 0.53977181 0 0 Z " fill="#B8985A" transform="translate(407.88232421875,22.93798828125)"/>
<path d="M0 0 C2.4028971 3.60434564 2.83867376 6.94139273 3.5 11.125 C3.75914182 12.66948527 4.01954607 14.2137593 4.28125 15.7578125 C4.405 16.49547852 4.52875 17.23314453 4.65625 17.99316406 C5.72004406 24.20366633 7.23801696 30.04292729 9.4140625 35.95703125 C10 38 10 38 10 42 C10.66 42 11.32 42 12 42 C12.66 45.3 13.32 48.6 14 52 C14.66 52 15.32 52 16 52 C17.20272819 54.40545638 17.10071472 55.94996953 17.0625 58.625 C17.05347656 59.44226563 17.04445312 60.25953125 17.03515625 61.1015625 C17.02355469 61.72804688 17.01195312 62.35453125 17 63 C13.57316404 61.28658202 12.99455066 57.25645148 11.75 53.8125 C11.44425049 52.97259521 11.13850098 52.13269043 10.82348633 51.26733398 C5.01599796 34.92561109 -0.58310394 17.49311805 0 0 Z " fill="#D9C394" transform="translate(158,332)"/>
<path d="M0 0 C0.66 0 1.32 0 2 0 C5 6.5 5 6.5 5 11 C5.66 11 6.32 11 7 11 C7 12.32 7 13.64 7 15 C8.32 15 9.64 15 11 15 C11.37125 14.071875 11.37125 14.071875 11.75 13.125 C13.20628639 10.64931313 14.37812506 10.04874998 17 9 C17 8.34 17 7.68 17 7 C17.804375 6.896875 18.60875 6.79375 19.4375 6.6875 C23.78247386 5.84899627 27.83457527 4.47178341 32 3 C32.495 4.98 32.495 4.98 33 7 C29.82253514 8.52194495 26.63164335 10.01341756 23.4375 11.5 C22.54224609 11.92925781 21.64699219 12.35851562 20.72460938 12.80078125 C15.53583932 15.1955982 11.7249341 16.56542559 6 16 C5.18082358 14.27398621 4.36993984 12.5440353 3.5625 10.8125 C3.11003906 9.84957031 2.65757812 8.88664063 2.19140625 7.89453125 C1.09618578 5.23368414 0.45045204 2.83215245 0 0 Z " fill="#D1B88A" transform="translate(336,219)"/>
<path d="M0 0 C0.33 0 0.66 0 1 0 C1.83308914 5.10204493 2.17285219 10.07751087 2.203125 15.25 C2.20882507 16.02577393 2.21452515 16.80154785 2.22039795 17.60083008 C2.22979767 19.2379421 2.23636179 20.87507261 2.24023438 22.51220703 C2.24986467 24.96552433 2.28090419 27.41797509 2.3125 29.87109375 C2.37828318 39.97110666 1.43339557 49.17833099 -1 59 C-1.33 59 -1.66 59 -2 59 C-2.09750956 53.51779561 -1.96195029 48.41097037 -1 43 C-1 41.80375 -1 40.6075 -1 39.375 C-1 36 -1 36 -0.50610352 34.25097656 C0.22033351 31.02003139 0.11078599 27.9180694 0.09765625 24.609375 C0.0962413 23.90476135 0.09482635 23.20014771 0.09336853 22.47418213 C0.08778933 20.23274416 0.07524073 17.99140757 0.0625 15.75 C0.05748231 14.22656395 0.05291987 12.70312632 0.04882812 11.1796875 C0.03782674 7.45309228 0.02057646 3.72655604 0 0 Z " fill="#D1B687" transform="translate(336,290)"/>
<path d="M0 0 C0.66 0 1.32 0 2 0 C-2.63332436 12.65253961 -14.00764229 25.0853492 -23 35 C-23.33 35 -23.66 35 -24 35 C-24 33.02 -24 31.04 -24 29 C-22.35 28.67 -20.7 28.34 -19 28 C-19 27.01 -19 26.02 -19 25 C-18.34 25 -17.68 25 -17 25 C-16.67 24.01 -16.34 23.02 -16 22 C-15.34 22 -14.68 22 -14 22 C-13.67 20.68 -13.34 19.36 -13 18 C-12.34 18 -11.68 18 -11 18 C-11 17.01 -11 16.02 -11 15 C-10.34 14.67 -9.68 14.34 -9 14 C-8.67 13.01 -8.34 12.02 -8 11 C-7.34 11 -6.68 11 -6 11 C-6 10.01 -6 9.02 -6 8 C-5.34 8 -4.68 8 -4 8 C-4 6.68 -4 5.36 -4 4 C-3.01 4 -2.02 4 -1 4 C-0.67 2.68 -0.34 1.36 0 0 Z " fill="#D0B989" transform="translate(308,416)"/>
<path d="M0 0 C0.99 0.33 1.98 0.66 3 1 C3 1.66 3 2.32 3 3 C3.58394531 3.26425781 4.16789063 3.52851563 4.76953125 3.80078125 C8.9139862 6.02906088 13.1474615 9.44238449 14.671875 14.015625 C14.9375 15.9375 14.9375 15.9375 15 19 C14.46375 18.236875 13.9275 17.47375 13.375 16.6875 C10.76692501 13.73625725 8.51616754 12.68483028 5 11 C2.625 9 2.625 9 1 7 C1 6.01 1 5.02 1 4 C0.34 4 -0.32 4 -1 4 C-0.67 2.68 -0.34 1.36 0 0 Z " fill="#C0A36B" transform="translate(150,185)"/>
<path d="M0 0 C0.99 0.66 1.98 1.32 3 2 C-0.57924315 3.98663184 -4.16405741 5.96299036 -7.75 7.9375 C-9.27367187 8.78344727 -9.27367187 8.78344727 -10.828125 9.64648438 C-11.8078125 10.18466797 -12.7875 10.72285156 -13.796875 11.27734375 C-15.14797363 12.02359009 -15.14797363 12.02359009 -16.52636719 12.78491211 C-18.71533087 13.86016598 -20.61870262 14.53103021 -23 15 C-23 13.68 -23 12.36 -23 11 C-22.43410156 10.87882813 -21.86820312 10.75765625 -21.28515625 10.6328125 C-20.55167969 10.46523437 -19.81820313 10.29765625 -19.0625 10.125 C-18.33160156 9.96257812 -17.60070312 9.80015625 -16.84765625 9.6328125 C-14.79299706 9.17038477 -14.79299706 9.17038477 -14 7 C-11.67843403 6.59270772 -9.3431213 6.25561323 -7 6 C-7 5.34 -7 4.68 -7 4 C-5.02 3.67 -3.04 3.34 -1 3 C-0.67 2.01 -0.34 1.02 0 0 Z " fill="#C9B282" transform="translate(392,210)"/>
<path d="M0 0 C0.33 0 0.66 0 1 0 C1.92644491 5.37338047 2.32033931 8.89525353 0 14 C-0.96113866 15.36161311 -1.95884159 16.69855198 -3 18 C-3.33 18.721875 -3.66 19.44375 -4 20.1875 C-5 22 -5 22 -8 23 C-5.81659819 15.13620323 -3.00714974 7.58324716 0 0 Z " fill="#C3AC75" transform="translate(275,282)"/>
<path d="M0 0 C6.59141001 9.88711502 6.72194055 22.51614462 7 34 C6.67 34 6.34 34 6 34 C-0.40437393 7.48091767 -0.40437393 7.48091767 0 0 Z " fill="#CBB084" transform="translate(7,61)"/>
<path d="M0 0 C0.66 0 1.32 0 2 0 C2.66 3.3 3.32 6.6 4 10 C4.66 10 5.32 10 6 10 C7.20272819 12.40545638 7.10071472 13.94996953 7.0625 16.625 C7.05347656 17.44226563 7.04445312 18.25953125 7.03515625 19.1015625 C7.02355469 19.72804688 7.01195312 20.35453125 7 21 C3.55920378 19.27960189 3.11094651 15.49325867 1.88671875 12.01171875 C0.69760895 7.97293613 0.27508561 4.19505553 0 0 Z " fill="#CCB17F" transform="translate(168,374)"/>
<path d="M0 0 C0.66 0.33 1.32 0.66 2 1 C2 1.66 2 2.32 2 3 C1.01 3.495 1.01 3.495 0 4 C0 6.31 0 8.62 0 11 C0.66 11 1.32 11 2 11 C2 11.66 2 12.32 2 13 C2.66 13.33 3.32 13.66 4 14 C4.75 16.9375 4.75 16.9375 5 20 C4.34 20.66 3.68 21.32 3 22 C2.01761592 19.58459694 1.03899782 17.16778178 0.0625 14.75 C-0.35418945 13.72712891 -0.35418945 13.72712891 -0.77929688 12.68359375 C-2.06975756 9.48076362 -3.21800044 6.36162466 -4 3 C-2.68 2.01 -1.36 1.02 0 0 Z " fill="#CDB98E" transform="translate(332,197)"/>
<path d="M0 0 C3 1 3 1 4.3515625 3.58203125 C4.98191406 5.18111328 4.98191406 5.18111328 5.625 6.8125 C6.05039063 7.87082031 6.47578125 8.92914063 6.9140625 10.01953125 C7.76341515 12.35066819 8.4729279 14.58132467 9 17 C9.66 17 10.32 17 11 17 C11.33 18.98 11.66 20.96 12 23 C8.61451456 19.05026699 6.16138573 14.94770182 3.75 10.375 C3.38648438 9.70726562 3.02296875 9.03953125 2.6484375 8.3515625 C0 3.37329652 0 3.37329652 0 0 Z " fill="#D8C092" transform="translate(177,399)"/>
<path d="M0 0 C0.99 0.33 1.98 0.66 3 1 C2.37968409 7.57534861 0.85102717 13.66692592 -1 20 C-1.33 20 -1.66 20 -2 20 C-1.86177801 16.85378318 -1.71314916 13.70814434 -1.5625 10.5625 C-1.52318359 9.66466797 -1.48386719 8.76683594 -1.44335938 7.84179688 C-1.40146484 6.98779297 -1.35957031 6.13378906 -1.31640625 5.25390625 C-1.27974854 4.46314697 -1.24309082 3.6723877 -1.20532227 2.85766602 C-1 1 -1 1 0 0 Z " fill="#C7B07A" transform="translate(482,78)"/>
<path d="M0 0 C0.33 0 0.66 0 1 0 C1.19335938 1.00160156 1.38671875 2.00320313 1.5859375 3.03515625 C1.84880049 4.37763508 2.11183026 5.72008127 2.375 7.0625 C2.50132812 7.71927734 2.62765625 8.37605469 2.7578125 9.05273438 C3.41154447 12.37042412 4.14890026 15.60487359 5.125 18.84375 C5.96282174 21.86589272 6.14125117 23.14687208 5 26 C1.57411507 22.57411507 1.01544462 18.94212212 0.9375 14.1875 C0.958125 13.135625 0.97875 12.08375 1 11 C0.67 10.67 0.34 10.34 0 10 C-0.07205511 8.31391034 -0.08386068 6.62499341 -0.0625 4.9375 C-0.05347656 4.01839844 -0.04445312 3.09929687 -0.03515625 2.15234375 C-0.02355469 1.44207031 -0.01195312 0.73179687 0 0 Z " fill="#CEB684" transform="translate(216,263)"/>
<path d="M0 0 C0.66 0.33 1.32 0.66 2 1 C-1.4191322 5.63237266 -4.94699183 8.54204165 -9.81640625 11.60546875 C-11.96221528 12.97586915 -13.98216814 14.44887755 -16 16 C-16.66 15.67 -17.32 15.34 -18 15 C-15.94423268 13.20007488 -13.88103782 11.41014591 -11.8125 9.625 C-11.23435547 9.11710937 -10.65621094 8.60921875 -10.06054688 8.0859375 C-6.85373305 5.33206348 -4.10676541 3.28384757 0 2 C0 1.34 0 0.68 0 0 Z " fill="#C2A878" transform="translate(293,63)"/>
<path d="M0 0 C0.66 0 1.32 0 2 0 C2 0.66 2 1.32 2 2 C2.99 2 3.98 2 5 2 C5.39832031 2.73605469 5.79664063 3.47210938 6.20703125 4.23046875 C6.73683594 5.20628906 7.26664063 6.18210938 7.8125 7.1875 C8.33457031 8.15042969 8.85664062 9.11335937 9.39453125 10.10546875 C10.45556127 12.01842069 11.57814673 13.89862718 12.76171875 15.73828125 C13.17035156 16.48464844 13.57898437 17.23101562 14 18 C13.67 18.66 13.34 19.32 13 20 C10.8295946 16.85673081 8.66430763 13.70997025 6.5 10.5625 C5.87996094 9.66466797 5.25992188 8.76683594 4.62109375 7.84179688 C4.03457031 6.98779297 3.44804688 6.13378906 2.84375 5.25390625 C2.02680664 4.06776733 2.02680664 4.06776733 1.19335938 2.85766602 C0 1 0 1 0 0 Z " fill="#D9B88C" transform="translate(36,148)"/>
<path d="M0 0 C2 3 2 3 3 6 C2.01 6.495 2.01 6.495 1 7 C0.5978125 8.7015625 0.5978125 8.7015625 0.1875 10.4375 C-1 14 -1 14 -3.625 15.4375 C-4.40875 15.623125 -5.1925 15.80875 -6 16 C-4.27933894 10.55123997 -2.15294651 5.28830549 0 0 Z " fill="#C7A776" transform="translate(373,138)"/>
<path d="M0 0 C0.66 0 1.32 0 2 0 C4.10396411 5.93317878 5.75971762 11.82777121 7 18 C6.34 18.33 5.68 18.66 5 19 C4.15919981 16.58570231 3.32718598 14.16896007 2.5 11.75 C2.14228516 10.72712891 2.14228516 10.72712891 1.77734375 9.68359375 C0.60578713 6.23586997 0 3.68297096 0 0 Z " fill="#D2B98B" transform="translate(14,95)"/>
<path d="M0 0 C2.08326131 -0.02709444 4.16662441 -0.04643873 6.25 -0.0625 C7.41015625 -0.07410156 8.5703125 -0.08570312 9.765625 -0.09765625 C12.40977128 -0.01782092 14.49826091 0.21356222 17 1 C17.33 2.32 17.66 3.64 18 5 C13.80716882 4.35155914 9.73500079 3.48783354 5.625 2.4375 C4.56539062 2.16808594 3.50578125 1.89867188 2.4140625 1.62109375 C1.21910156 1.31365234 1.21910156 1.31365234 0 1 C0 0.67 0 0.34 0 0 Z " fill="#C6A976" transform="translate(156,115)"/>
<path d="M0 0 C0.66 0.33 1.32 0.66 2 1 C1.01773437 1.58201172 1.01773437 1.58201172 0.015625 2.17578125 C-2.23981033 3.83325291 -2.23981033 3.83325291 -2.390625 6.48046875 C-2.34421875 7.37378906 -2.2978125 8.26710938 -2.25 9.1875 C-2.21390625 10.08855469 -2.1778125 10.98960938 -2.140625 11.91796875 C-2.09421875 12.60503906 -2.0478125 13.29210938 -2 14 C-2.66 14 -3.32 14 -4 14 C-4 15.98 -4 17.96 -4 20 C-4.33 20 -4.66 20 -5 20 C-5.13487595 17.22754986 -5.23400807 14.46162912 -5.3125 11.6875 C-5.35439453 10.90181641 -5.39628906 10.11613281 -5.43945312 9.30664062 C-5.48641506 7.09942971 -5.47331379 5.1576029 -5 3 C-2.60546875 0.89453125 -2.60546875 0.89453125 0 0 Z " fill="#D1BC91" transform="translate(10,30)"/>
<path d="M0 0 C0.99 0.99 1.98 1.98 3 3 C2.67 3.66 2.34 4.32 2 5 C1.67 5.99 1.34 6.98 1 8 C0.360625 8.474375 -0.27875 8.94875 -0.9375 9.4375 C-3.16663817 11.12624104 -3.9445181 12.44925207 -5 15 C-5.33 14.34 -5.66 13.68 -6 13 C-5.10333658 10.75689987 -4.10853317 8.55245679 -3.0625 6.375 C-2.49660156 5.18648437 -1.93070313 3.99796875 -1.34765625 2.7734375 C-0.90292969 1.85820312 -0.45820313 0.94296875 0 0 Z " fill="#C9B17D" transform="translate(180,208)"/>
<path d="M0 0 C4.60853797 0.72008406 8.67237409 2.31295939 13 4 C12 6 12 6 9.875 7 C5.83057706 7 4.24908811 5.09831106 1.35546875 2.4453125 C0 1 0 1 0 0 Z " fill="#CAB07B" transform="translate(285,123)"/>
<path d="M0 0 C0.33 0.66 0.66 1.32 1 2 C-0.68474722 5.36949443 -1.8191658 6.87944386 -5 9 C-4.34 9.33 -3.68 9.66 -3 10 C-3.33 10.66 -3.66 11.32 -4 12 C-4.99 11.34 -5.98 10.68 -7 10 C-6.84518205 7.29068581 -6.51827919 5.53415961 -4.59765625 3.5546875 C-3.10228292 2.32320358 -1.5537076 1.1570163 0 0 Z " fill="#C7AF7E" transform="translate(268,85)"/>
<path d="M0 0 C0.66 0 1.32 0 2 0 C2.33 5.94 2.66 11.88 3 18 C2.34 17.67 1.68 17.34 1 17 C-0.08179761 13.223914 -0.10543987 9.59502858 -0.0625 5.6875 C-0.05347656 4.61886719 -0.04445313 3.55023438 -0.03515625 2.44921875 C-0.02355469 1.64097656 -0.01195312 0.83273438 0 0 Z " fill="#BCA36F" transform="translate(6,44)"/>
<path d="M0 0 C0.66 0 1.32 0 2 0 C1.43174347 5.54050113 -0.62886517 10.03715966 -3 15 C-4.2288865 11.48538462 -3.75329849 9.31643613 -2.625 5.8125 C-2.34914063 4.93207031 -2.07328125 4.05164063 -1.7890625 3.14453125 C-1 1 -1 1 0 0 Z " fill="#E0C89B" transform="translate(323,384)"/>
<path d="M0 0 C1.06671952 3.20015856 0.94845472 4.88544294 0.5625 8.1875 C0.46066406 9.08855469 0.35882813 9.98960937 0.25390625 10.91796875 C0.12822266 11.94857422 0.12822266 11.94857422 0 13 C-0.66 13 -1.32 13 -2 13 C-2 11.68 -2 10.36 -2 9 C-2.66 9 -3.32 9 -4 9 C-3.46930939 5.17902761 -2.50298434 2.93828597 0 0 Z " fill="#C9AB7D" transform="translate(216,248)"/>
<path d="M0 0 C0.33 0 0.66 0 1 0 C1.125 7.625 1.125 7.625 0 11 C-0.66 11 -1.32 11 -2 11 C-2 11.66 -2 12.32 -2 13 C-1.34 13.33 -0.68 13.66 0 14 C-0.99 14 -1.98 14 -3 14 C-3 15.32 -3 16.64 -3 18 C-3.66 18 -4.32 18 -5 18 C-1.92482916 5.33029613 -1.92482916 5.33029613 0 0 Z " fill="#CBB17E" transform="translate(173,223)"/>
<path d="M0 0 C0.33 0 0.66 0 1 0 C1.33 2.64 1.66 5.28 2 8 C1.01 8.33 0.02 8.66 -1 9 C-2.22520264 12.00847418 -2.22520264 12.00847418 -3 15 C-3.66 15 -4.32 15 -5 15 C-1.92482916 4.44191344 -1.92482916 4.44191344 0 0 Z " fill="#CEB88E" transform="translate(275,282)"/>
<path d="M0 0 C2.46140365 2.46140365 3.30326986 4.78456293 4.625 8 C5.07101563 9.0725 5.51703125 10.145 5.9765625 11.25 C7 14 7 14 7 16 C6.01 15.67 5.02 15.34 4 15 C3.67 12.69 3.34 10.38 3 8 C2.34 8 1.68 8 1 8 C-0.35439668 5.29120665 -0.06501451 2.99066732 0 0 Z " fill="#CFB17F" transform="translate(224,294)"/>
<path d="M0 0 C0 0.66 0 1.32 0 2 C-4.95 2 -9.9 2 -15 2 C-15 1.67 -15 1.34 -15 1 C-4.63414634 -2.31707317 -4.63414634 -2.31707317 0 0 Z " fill="#C2A776" transform="translate(279,249)"/>
<path d="M0 0 C0.33 0 0.66 0 1 0 C1.33 3.96 1.66 7.92 2 12 C1.01 12.33 0.02 12.66 -1 13 C-1 14.65 -1 16.3 -1 18 C-1.33 18 -1.66 18 -2 18 C-2.23268915 11.71739294 -1.40454548 6.11980533 0 0 Z " fill="#CFB88A" transform="translate(162,261)"/>
<path d="M0 0 C0.7425 0.598125 1.485 1.19625 2.25 1.8125 C2.25 2.8025 2.25 3.7925 2.25 4.8125 C-1.57097239 4.28180939 -3.81171403 3.31548434 -6.75 0.8125 C-3.94139355 -1.16392676 -3.24864032 -1.40282196 0 0 Z " fill="#C2A773" transform="translate(118.75,217.1875)"/>
<path d="M0 0 C1.98 0.66 3.96 1.32 6 2 C6.33 3.65 6.66 5.3 7 7 C7.99 7 8.98 7 10 7 C10 7.99 10 8.98 10 10 C6.54804233 8.5741914 4.8985744 6.90253666 2.75 3.875 C1.96882812 2.78832031 1.96882812 2.78832031 1.171875 1.6796875 C0.78515625 1.12539063 0.3984375 0.57109375 0 0 Z " fill="#D2B78B" transform="translate(217,459)"/>
<path d="M0 0 C0.66 0 1.32 0 2 0 C1.49381745 4.38691545 -1.13082981 6.84391279 -4 10 C-4.33 10 -4.66 10 -5 10 C-5 8.02 -5 6.04 -5 4 C-3.35 3.67 -1.7 3.34 0 3 C0 2.01 0 1.02 0 0 Z " fill="#C2AB76" transform="translate(289,441)"/>
<path d="M0 0 C1.31225809 3.93677426 0.3393954 5.7794262 -0.9375 9.6875 C-1.50791016 11.45673828 -1.50791016 11.45673828 -2.08984375 13.26171875 C-2.39019531 14.16535156 -2.69054687 15.06898438 -3 16 C-4.10408478 12.68774566 -3.88103713 11.3529277 -3.1875 8 C-3.01605469 7.13375 -2.84460938 6.2675 -2.66796875 5.375 C-2 3 -2 3 0 0 Z " fill="#DAC69B" transform="translate(329,368)"/>
<path d="M0 0 C0.66 0.33 1.32 0.66 2 1 C0.54634731 2.17249353 -0.91307419 3.33783816 -2.375 4.5 C-3.18710937 5.1496875 -3.99921875 5.799375 -4.8359375 6.46875 C-7 8 -7 8 -9 8 C-8.67 6.68 -8.34 5.36 -8 4 C-6.35 3.67 -4.7 3.34 -3 3 C-3 2.34 -3 1.68 -3 1 C-2.01 0.67 -1.02 0.34 0 0 Z " fill="#D1B68C" transform="translate(412,198)"/>
<path d="M0 0 C0.99 0.33 1.98 0.66 3 1 C3 1.66 3 2.32 3 3 C3.598125 3.2475 4.19625 3.495 4.8125 3.75 C7.28647521 5.16370012 8.43370255 6.65055383 10 9 C8.0625 8.625 8.0625 8.625 6 8 C5.67 7.34 5.34 6.68 5 6 C3.02111039 5.27306096 1.02045442 4.60183749 -1 4 C-0.67 2.68 -0.34 1.36 0 0 Z " fill="#CFB48A" transform="translate(150,185)"/>
<path d="M0 0 C0.66 0 1.32 0 2 0 C1.01 4.95 0.02 9.9 -1 15 C-1.33 15 -1.66 15 -2 15 C-3.125 7.25 -3.125 7.25 -2 5 C-1.34 5 -0.68 5 0 5 C0 3.35 0 1.7 0 0 Z " fill="#D1BB93" transform="translate(332,352)"/>
<path d="M0 0 C-2.52956528 3.0916909 -5.22454612 3.90931332 -9 5 C-9 3.68 -9 2.36 -9 1 C-6.04335481 -0.4783226 -3.25770263 -0.06032783 0 0 Z " fill="#C7AB74" transform="translate(378,220)"/>
<path d="M0 0 C0.99 0.33 1.98 0.66 3 1 C2.814375 1.886875 2.62875 2.77375 2.4375 3.6875 C2.01957516 6.85178811 2.19222258 8.94839642 3 12 C0.03947516 8.63576723 -0.92289822 5.30840713 -2 1 C-1.34 0.67 -0.68 0.34 0 0 Z " fill="#CCB383" transform="translate(25,120)"/>
<path d="M0 0 C1.02896681 0.9701687 2.03386992 1.96724026 3 3 C-7.55808656 2.03644647 -7.55808656 2.03644647 -12 1 C-12 0.67 -12 0.34 -12 0 C-4.15384615 -1.38461538 -4.15384615 -1.38461538 0 0 Z " fill="#C9B07E" transform="translate(152,112)"/>
<path d="M0 0 C2.35953094 2.35953094 2.49141413 3.77895617 3 7 C2.34 7 1.68 7 1 7 C1 7.66 1 8.32 1 9 C0.34 9 -0.32 9 -1 9 C-2.1875 7.3125 -2.1875 7.3125 -3 5 C-1.625 2.25 -1.625 2.25 0 0 Z " fill="#CBB579" transform="translate(266,305)"/>
<path d="M0 0 C0.95465783 2.16967689 1.14401212 3.56328793 0.3984375 5.82421875 C-0.35870385 7.5684743 -1.17609198 9.28627131 -2 11 C-2.66 11 -3.32 11 -4 11 C-3.125 4.25 -3.125 4.25 -2 2 C-1.34 2 -0.68 2 0 2 C0 1.34 0 0.68 0 0 Z " fill="#C3AD72" transform="translate(158,217)"/>
<path d="M0 0 C0.9659657 2.60810739 1.02770914 3.89420147 0.3125 6.625 C-1.16625774 9.30084735 -2.17750049 9.96508351 -5 11 C-3.77472971 6.94718288 -2.30119506 3.55639236 0 0 Z " fill="#C9AC7A" transform="translate(206,157)"/>
<path d="M0 0 C0.99 0.33 1.98 0.66 3 1 C4.4053516 5.43795241 5.29241839 9.32130569 5 14 C2.99006295 10.98509443 2.27376659 8.7850073 1.375 5.3125 C1.11460937 4.31863281 0.85421875 3.32476562 0.5859375 2.30078125 C0.39257812 1.54152344 0.19921875 0.78226562 0 0 Z " fill="#E1CAA0" transform="translate(164,367)"/>
<path d="M0 0 C2.3125 0.125 2.3125 0.125 5 1 C6.875 3.875 6.875 3.875 8 7 C7.67 7.99 7.34 8.98 7 10 C5.83043409 8.52312468 4.66441854 7.04343707 3.5 5.5625 C2.8503125 4.73878906 2.200625 3.91507813 1.53125 3.06640625 C0 1 0 1 0 0 Z " fill="#CCAF80" transform="translate(50,168)"/>
<path d="M0 0 C0.66 0 1.32 0 2 0 C3.125 7.75 3.125 7.75 2 10 C1.34 10 0.68 10 0 10 C0 6.7 0 3.4 0 0 Z " fill="#D4BF88" transform="translate(279,252)"/>
<path d="M0 0 C2.64 0 5.28 0 8 0 C8 0.66 8 1.32 8 2 C9.65 2 11.3 2 13 2 C12.67 2.99 12.34 3.98 12 5 C11.319375 4.71125 10.63875 4.4225 9.9375 4.125 C6.67106907 2.87402645 3.37153877 1.92552045 0 1 C0 0.67 0 0.34 0 0 Z " fill="#D2BC8D" transform="translate(140,231)"/>
<path d="M0 0 C3.05936637 3.75467691 5 7.08113061 5 12 C4.34 12 3.68 12 3 12 C-0.42857143 4.71428571 -0.42857143 4.71428571 0 0 Z " fill="#C7A876" transform="translate(311,202)"/>
<path d="M0 0 C-0.99 1.485 -0.99 1.485 -2 3 C-2.66 3 -3.32 3 -4 3 C-4 3.66 -4 4.32 -4 5 C-5.32 4.67 -6.64 4.34 -8 4 C-7 1 -7 1 -5.125 -0.25 C-3 -1 -3 -1 0 0 Z " fill="#C4AA77" transform="translate(420,193)"/>
<path d="M0 0 C0.99 0.33 1.98 0.66 3 1 C0.42215154 3.64752004 -1.91648098 5.94432065 -5 8 C-5 6.35 -5 4.7 -5 3 C-3.35 2.67 -1.7 2.34 0 2 C0 1.34 0 0.68 0 0 Z " fill="#C9B486" transform="translate(426,185)"/>
<path d="M0 0 C0.99 0.33 1.98 0.66 3 1 C3 1.66 3 2.32 3 3 C1.68 3.33 0.36 3.66 -1 4 C-1.33 5.65 -1.66 7.3 -2 9 C-2.99 9 -3.98 9 -5 9 C-3.7508258 5.54074837 -2.32472205 2.85306797 0 0 Z " fill="#C3A871" transform="translate(217,140)"/>
<path d="M0 0 C-0.98093954 2.45234885 -1.68703828 3.7809268 -3.875 5.3125 C-6.35009306 6.1132654 -7.58287634 5.86325845 -10 5 C-8.68 4.67 -7.36 4.34 -6 4 C-6 3.34 -6 2.68 -6 2 C-2.25 0 -2.25 0 0 0 Z " fill="#C3AD73" transform="translate(312,52)"/>
<path d="M0 0 C2.475 0.99 2.475 0.99 5 2 C5.6875 4.0625 5.6875 4.0625 6 6 C6.66 6.33 7.32 6.66 8 7 C7.34 7.66 6.68 8.32 6 9 C4.02 6.03 2.04 3.06 0 0 Z " fill="#D6BE90" transform="translate(210,450)"/>
<path d="M0 0 C0.99 0 1.98 0 3 0 C3 2.97 3 5.94 3 9 C0 7 0 7 -0.75 4.5 C-1 2 -1 2 0 0 Z " fill="#C2A671" transform="translate(205,438)"/>
<path d="M0 0 C0.66 0.33 1.32 0.66 2 1 C1.01 2.485 1.01 2.485 0 4 C0.30840599 6.15274948 0.30840599 6.15274948 1 8 C0.01 8 -0.98 8 -2 8 C-2.33 6.02 -2.66 4.04 -3 2 C-2.01 1.34 -1.02 0.68 0 0 Z " fill="#BC9E64" transform="translate(270,303)"/>
<path d="M0 0 C0.66 1.32 1.32 2.64 2 4 C-0.64 4.99 -3.28 5.98 -6 7 C-6.33 6.01 -6.66 5.02 -7 4 C-6.01 4 -5.02 4 -4 4 C-4 3.34 -4 2.68 -4 2 C-2.68 1.34 -1.36 0.68 0 0 Z " fill="#CFB381" transform="translate(367,222)"/>
<path d="M0 0 C0.99 0.33 1.98 0.66 3 1 C1.71937515 2.7074998 0.38232443 4.37373596 -1 6 C-1.66 6 -2.32 6 -3 6 C-3.33 6.99 -3.66 7.98 -4 9 C-4.8125 7.3125 -4.8125 7.3125 -5 5 C-2.5625 2.25 -2.5625 2.25 0 0 Z " fill="#CFB88B" transform="translate(281,451)"/>
<path d="M0 0 C3 1 3 1 3.94921875 2.84765625 C4.19285156 3.57855469 4.43648437 4.30945313 4.6875 5.0625 C4.93886719 5.79597656 5.19023437 6.52945312 5.44921875 7.28515625 C5.63097656 7.85105469 5.81273437 8.41695313 6 9 C3.5067466 8.00269864 2.22532561 7.34925469 0.75 5.0625 C0 3 0 3 0 0 Z " fill="#D0B487" transform="translate(177,399)"/>
<path d="M0 0 C1.98 0.99 1.98 0.99 4 2 C4 4.31 4 6.62 4 9 C1.18167487 7.59083743 0.97406539 5.92219617 0 3 C0 2.01 0 1.02 0 0 Z " fill="#D4C08B" transform="translate(171,386)"/>
<path d="M0 0 C2.0625 0.4375 2.0625 0.4375 4 1 C4 1.99 4 2.98 4 4 C5.32 4 6.64 4 8 4 C8.33 4.99 8.66 5.98 9 7 C4.56909529 5.79157144 2.01887244 4.48331435 -1 1 C-0.67 0.67 -0.34 0.34 0 0 Z " fill="#CBB07B" transform="translate(98,208)"/>
<path d="M0 0 C3.37462715 0.54723683 5.08235 1.0549 8 3 C7.67 3.99 7.34 4.98 7 6 C5.83054208 5.19152271 4.66449539 4.37810888 3.5 3.5625 C2.8503125 3.11003906 2.200625 2.65757812 1.53125 2.19140625 C1.0259375 1.79824219 0.520625 1.40507812 0 1 C0 0.67 0 0.34 0 0 Z " fill="#CAB083" transform="translate(84,200)"/>
<path d="M0 0 C0.66 0.66 1.32 1.32 2 2 C2.99 2 3.98 2 5 2 C4.67 2.99 4.34 3.98 4 5 C3.01 5.33 2.02 5.66 1 6 C0.34 5.67 -0.32 5.34 -1 5 C-0.67 3.35 -0.34 1.7 0 0 Z " fill="#BDA067" transform="translate(427,180)"/>
<path d="M0 0 C0.33 0.66 0.66 1.32 1 2 C0.0625 4.625 0.0625 4.625 -1 7 C-1.66 7 -2.32 7 -3 7 C-3.33 7.99 -3.66 8.98 -4 10 C-4.8125 8.375 -4.8125 8.375 -5 6 C-3.53181864 3.75390165 -1.84147142 1.97621323 0 0 Z " fill="#C8A770" transform="translate(230,122)"/>
<path d="M0 0 C-5.73166369 3.66189624 -5.73166369 3.66189624 -9 4 C-9.66 3.34 -10.32 2.68 -11 2 C-3.57142857 -1.57142857 -3.57142857 -1.57142857 0 0 Z " fill="#C8AF79" transform="translate(350,36)"/>
<path d="M0 0 C0.99 0 1.98 0 3 0 C3 0.66 3 1.32 3 2 C5.475 2.99 5.475 2.99 8 4 C8 4.99 8 5.98 8 7 C7.34 7 6.68 7 6 7 C6 6.34 6 5.68 6 5 C5.38125 4.731875 4.7625 4.46375 4.125 4.1875 C2 3 2 3 0 0 Z " fill="#CDB980" transform="translate(227,469)"/>
<path d="M0 0 C0.66 0 1.32 0 2 0 C1.43454163 3.95820859 0.19097652 6.6659053 -2 10 C-2.33 8.68 -2.66 7.36 -3 6 C-2.34 6 -1.68 6 -1 6 C-0.67 4.02 -0.34 2.04 0 0 Z " fill="#E2C897" transform="translate(317,399)"/>
<path d="M0 0 C0.66 0 1.32 0 2 0 C2 3.63 2 7.26 2 11 C-0.52380952 5.95238095 -0.52380952 5.95238095 -1 3 C-0.67 2.01 -0.34 1.02 0 0 Z " fill="#DEC595" transform="translate(336,323)"/>
<path d="M0 0 C4.92307692 4.30769231 4.92307692 4.30769231 5.3125 7.8125 C5.209375 8.534375 5.10625 9.25625 5 10 C2.08772731 6.71195019 0.50298788 4.40114397 0 0 Z " fill="#D6C196" transform="translate(160,194)"/>
<path d="M0 0 C0.66 0 1.32 0 2 0 C2 0.66 2 1.32 2 2 C2.99 2 3.98 2 5 2 C5.66 3.98 6.32 5.96 7 8 C3.70851757 6.86500606 3.0040131 6.00716624 1.25 2.875 C0.8375 1.92625 0.425 0.9775 0 0 Z " fill="#D0B87B" transform="translate(36,148)"/>
<path d="M0 0 C2.475 0.495 2.475 0.495 5 1 C5.99 3.97 6.98 6.94 8 10 C4.74475735 6.97727468 2.38179263 3.74281699 0 0 Z " fill="#CBB285" transform="translate(272,106)"/>
<path d="M0 0 C0.66 0 1.32 0 2 0 C2.33 0.99 2.66 1.98 3 3 C2.67 3.66 2.34 4.32 2 5 C0.35 5 -1.3 5 -3 5 C-3 5.66 -3 6.32 -3 7 C-3.66 7 -4.32 7 -5 7 C-4 4 -4 4 -1.9375 2.8125 C-1.298125 2.544375 -0.65875 2.27625 0 2 C0 1.34 0 0.68 0 0 Z " fill="#BC9F69" transform="translate(353,226)"/>
<path d="M0 0 C2.9375 0.8125 2.9375 0.8125 6 2 C6.33 2.99 6.66 3.98 7 5 C4.03 4.01 1.06 3.02 -2 2 C-1.34 1.34 -0.68 0.68 0 0 Z " fill="#CDB389" transform="translate(128,224)"/>
<path d="M0 0 C1 2 1 2 0.3125 4.5 C-1.15567038 7.29651501 -2.09303901 7.93411431 -5 9 C-3.7508258 5.54074837 -2.32472205 2.85306797 0 0 Z " fill="#CCB580" transform="translate(223,131)"/>
<path d="M0 0 C0.66 0.33 1.32 0.66 2 1 C-1.96 4.465 -1.96 4.465 -6 8 C-6.66 7.67 -7.32 7.34 -8 7 C-5.36 4.69 -2.72 2.38 0 0 Z " fill="#D2B988" transform="translate(283,71)"/>
<path d="M0 0 C0.99 0.66 1.98 1.32 3 2 C-2.75 6 -2.75 6 -5 6 C-5 5.01 -5 4.02 -5 3 C-2.5 1.3125 -2.5 1.3125 0 0 Z " fill="#C9B07B" transform="translate(400,205)"/>
<path d="M0 0 C2.97 0 5.94 0 9 0 C8.67 0.99 8.34 1.98 8 3 C5.36 2.34 2.72 1.68 0 1 C0 0.67 0 0.34 0 0 Z " fill="#BCA272" transform="translate(468,28)"/>
<path d="M0 0 C2.12508244 3.18762365 2.5020163 5.26512223 3 9 C2.34 9 1.68 9 1 9 C-0.4783226 6.04335481 -0.06032783 3.25770263 0 0 Z " fill="#C3AB74" transform="translate(320,224)"/>
<path d="M0 0 C2.5654594 2.5654594 2.54046087 4.47686668 3 8 C2.01 8 1.02 8 0 8 C0 5.36 0 2.72 0 0 Z " fill="#C2A86F" transform="translate(316,214)"/>
<path d="M0 0 C0.66 0.99 1.32 1.98 2 3 C0.68 4.65 -0.64 6.3 -2 8 C-2.66 7.67 -3.32 7.34 -4 7 C-2.68 4.69 -1.36 2.38 0 0 Z " fill="#CDB676" transform="translate(366,155)"/>
<path d="M0 0 C0.6875 1.75 0.6875 1.75 1 4 C-0.3125 6.25 -0.3125 6.25 -2 8 C-2.66 8 -3.32 8 -4 8 C-2.87548273 5.0280615 -1.77706209 2.66559313 0 0 Z " fill="#C8AE7E" transform="translate(211,149)"/>
<path d="M0 0 C2.46278801 2.46278801 2.99771255 4.70676982 4 8 C3.01 8 2.02 8 1 8 C-1.125 3.375 -1.125 3.375 0 0 Z " fill="#CFB58C" transform="translate(123,145)"/>
<path d="M0 0 C0.33 0 0.66 0 1 0 C1.33 2.31 1.66 4.62 2 7 C0.02 7.99 0.02 7.99 -2 9 C-1.34 6.03 -0.68 3.06 0 0 Z " fill="#C9B084" transform="translate(376,129)"/>
</svg>
